<?xml version="1.0" encoding="utf-8"?>
<!-- Uploaded to: SVG Repo, www.svgrepo.com, Generator: SVG Repo Mixer Tools -->
<svg fill="#000000" width="800px" height="800px" viewBox="-9.5 0 32 32" version="1.1" xmlns="http://www.w3.org/2000/svg">
<title>iphone</title>
<path d="M2.375 4h8.281c1.313 0 2.375 1.063 2.375 2.375v19.25c0 1.313-1.063 2.375-2.375 2.375h-8.281c-1.313 0-2.375-1.063-2.375-2.375v-19.25c0-1.313 1.063-2.375 2.375-2.375zM1.531 23.281h9.969v-14.781h-9.969v14.781zM6.5 26.563c0.75 0 1.313-0.563 1.313-1.281 0-0.75-0.563-1.313-1.313-1.313-0.719 0-1.281 0.563-1.281 1.313 0 0.719 0.563 1.281 1.281 1.281z"></path>
</svg>