<svg enable-background="new 0 0 20 20" height="20" viewBox="0 0 20 20" width="20" xmlns="http://www.w3.org/2000/svg"><path d="m0 0h20v20h-20z" fill="none"/><path d="m15 10c-1.1 0-2 .9-2 2s.9 2 2 2 2-.9 2-2-.9-2-2-2zm0 3c-.55 0-1-.45-1-1s.45-1 1-1 1 .45 1 1-.45 1-1 1z"/><path d="m12 11.99c0-1.65 1.34-2.99 2.99-2.99h.24l-1.2-5.22c-.1-.46-.51-.78-.98-.78h-2.55c-.28 0-.5.22-.5.5s.22.5.5.5h2.55l.95 4.14c-1.57.4-2.75 1.72-2.96 3.36h-4.11c-.26-1-1.27-1.71-2.4-1.45-.72.17-1.3.75-1.47 1.47-.31 1.31.68 2.48 1.94 2.48.93 0 1.71-.64 1.93-1.5h5.07zm-7 1.01c-.55 0-1-.45-1-1s.45-1 1-1 1 .45 1 1-.45 1-1 1z"/><path d="m9.5 15h-2.5l3.5 2v-1h2.5l-3.5-2z"/></svg>