<svg id="Layer_1" data-name="Layer 1" xmlns="http://www.w3.org/2000/svg" viewBox="0 0 595.28 147.22"><defs><style>.cls-1{fill:#52ae32;}.cls-1,.cls-2,.cls-3,.cls-4,.cls-5,.cls-7{fill-rule:evenodd;}.cls-2{fill:#fbea24;}.cls-3{fill:#009cdf;}.cls-4{fill:#e3007c;}.cls-5{fill:#ef7d00;}.cls-6,.cls-7{fill:#1b1a19;}</style></defs><path class="cls-1" d="M522.72,86.09h5.92a1.53,1.53,0,0,1,1.52,1.52v5.92a1.53,1.53,0,0,1-1.52,1.52h-5.92a1.52,1.52,0,0,1-1.52-1.52V87.61a1.53,1.53,0,0,1,1.52-1.52"/><path class="cls-2" d="M532.94,86.09h5.92a1.53,1.53,0,0,1,1.52,1.52v5.92a1.53,1.53,0,0,1-1.52,1.52h-5.92a1.52,1.52,0,0,1-1.52-1.52V87.61a1.53,1.53,0,0,1,1.52-1.52"/><path class="cls-3" d="M543.23,86.25h5.92a1.52,1.52,0,0,1,1.52,1.52v5.92a1.53,1.53,0,0,1-1.52,1.52h-5.92a1.53,1.53,0,0,1-1.52-1.52V87.77a1.53,1.53,0,0,1,1.52-1.52"/><path class="cls-4" d="M553.46,86.25h5.92a1.52,1.52,0,0,1,1.52,1.52v5.92a1.53,1.53,0,0,1-1.52,1.52h-5.92a1.53,1.53,0,0,1-1.52-1.52V87.77a1.52,1.52,0,0,1,1.52-1.52"/><path class="cls-5" d="M563.89,86.11h5.92a1.53,1.53,0,0,1,1.52,1.52v5.92a1.53,1.53,0,0,1-1.52,1.52h-5.92a1.53,1.53,0,0,1-1.52-1.52V87.63a1.52,1.52,0,0,1,1.52-1.52"/><path class="cls-6" d="M71.09,100.13c.11,0-.07,0-.15,0l0,0Z"/><path class="cls-6" d="M71,100.13l0,0a.05.05,0,0,1,0,0l0,.07Z"/><path class="cls-6" d="M62.66,50.05l42.4,42.05A10.86,10.86,0,0,1,108,96.7a7,7,0,0,1-.59,5.59,8.31,8.31,0,0,1-3,3.06,9.7,9.7,0,0,1-4.49,1.37l-58.6-.12a13.64,13.64,0,0,1-9.63-4h0a13.61,13.61,0,0,1-4-9.64V35.38A13.69,13.69,0,0,1,41.28,21.72H98.86a13.69,13.69,0,0,1,13.66,13.66V47.61a4.54,4.54,0,1,1-9.07,0V35.38a4.61,4.61,0,0,0-4.59-4.59H41.28a4.61,4.61,0,0,0-4.59,4.59V93A4.58,4.58,0,0,0,38,96.19h0a4.68,4.68,0,0,0,3.25,1.37l56.56.11L56.66,56.84V85.27a4.54,4.54,0,0,1-9.07,0v-37a7.22,7.22,0,0,1,2.13-5.11h0A7.25,7.25,0,0,1,54.85,41h37a4.54,4.54,0,0,1,0,9.07Z"/><path class="cls-7" d="M140.3,41.13,121.47,41c-2.08.38-3.26,1.61-3.12,4.2l.35,49a2.38,2.38,0,0,0,2.65,2.4h18.83c4.41-.32,7.07-2.68,7.8-7.32V48.64C147.53,44.45,142.85,41.25,140.3,41.13Zm-4,45.31c-2.17.17-7.2,0-7.2,0l-.4-35.57s5.14-.09,7.12,0,2.1,1,2.27,2.34.25,30.71.25,30.71A2.3,2.3,0,0,1,136.28,86.44Z"/><path class="cls-7" d="M171.27,80.28s.07,5.64.06,7c0,2.41-8.78,2.32-8.75-.48l.12-10.31,17.57-.24s-.06-15.6-.18-17.94-3.9-7.14-7.49-7.14H160.83c-4,0-7.75,5.45-7.73,8.58l.24,29.45c0,3.07,3.74,7.8,7.26,7.8h12.05a7.46,7.46,0,0,0,7.75-6.84V80.41Zm-8.7-19.19c0-2.38,8.45-2.38,8.51-.06.07,2.63,0,5.27,0,7.91h-8.51Z"/><path class="cls-7" d="M212.42,57.9c-.11-2.34-4-6.41-7.55-6.41H193.11l-7.65,0-.09,7.74.24,29.45-.05,17.72,9.78.09-.21-10,9.8,0a7.44,7.44,0,0,0,7.74-6.84V80S212.55,60.24,212.42,57.9Zm-9,28.85A1.19,1.19,0,0,1,202.31,88c-2.1,0-5.51,0-7.38.05.13-8.93-.06-17.94-.08-23.28,0,1,0-2,0-4.58,1.2,0,.52,0,6.41,0a1.93,1.93,0,0,1,2,1.95c-.05,2.64.12,15.3.12,17.94v6.65Z"/><path class="cls-7" d="M244.57,76.21s-.06-15.6-.18-17.94-3.9-7.14-7.49-7.14H225.13c-4,0-7.76,5.45-7.74,8.58l.25,29.45c0,3.07,3.73,7.8,7.25,7.8H237a7.45,7.45,0,0,0,7.74-6.84Zm-17.7,10.55.06-4.25h-.07V61.09c0-2.38,8.45-2.38,8.52-.06,0,1.23,0,2.48,0,3.72h0V75.06h0v3h0c0,2.81,0,8.15,0,9.12C235.48,89.58,226.84,89.56,226.87,86.76Z"/><rect class="cls-6" x="270.98" y="68.61" width="2.11" height="29"/><path class="cls-6" d="M284.4,74.35a.75.75,0,0,0,.28.63,2.19,2.19,0,0,0,.73.39l1,.31a5.08,5.08,0,0,1,1,.39,2.05,2.05,0,0,1,.73.64,1.73,1.73,0,0,1,.29,1,2,2,0,0,1-.41,1.27,2.54,2.54,0,0,1-1.13.79,4.3,4.3,0,0,1-1.6.28,7.06,7.06,0,0,1-1.09-.09,8.76,8.76,0,0,1-1.17-.25l.09-2h.89l.15,1.33-.14-.17a6.13,6.13,0,0,0,.67.13,5.13,5.13,0,0,0,.65.05,2.41,2.41,0,0,0,.81-.13,1.42,1.42,0,0,0,.63-.38A.87.87,0,0,0,287,78a.82.82,0,0,0-.29-.66,2,2,0,0,0-.73-.4L285,76.6a5.17,5.17,0,0,1-.94-.39,2.13,2.13,0,0,1-.73-.63,1.74,1.74,0,0,1-.28-1,1.91,1.91,0,0,1,.38-1.22,2.17,2.17,0,0,1,1-.7,3.92,3.92,0,0,1,1.34-.22,6.11,6.11,0,0,1,1.08.1,8.39,8.39,0,0,1,1.23.29L288,74.47h-.9l-.21-1.13.2.22a4.55,4.55,0,0,0-1.29-.21,1.77,1.77,0,0,0-1,.27A.84.84,0,0,0,284.4,74.35Z"/><path class="cls-6" d="M291.65,79.09l-.12-.16,1.17.27V80h-3.48V79.2l1.17-.27-.14.16V73.45l.13.13-1.16-.27v-.74l2.43-.08Zm-.77-8a.88.88,0,0,1-.62-.23.92.92,0,0,1-.24-.68.88.88,0,0,1,.25-.68.92.92,0,0,1,.63-.23.89.89,0,0,1,.63.23.88.88,0,0,1,.25.68.87.87,0,0,1-.26.68A.88.88,0,0,1,290.88,71.11Z"/><path class="cls-6" d="M294.93,74.35a.75.75,0,0,0,.28.63,2.19,2.19,0,0,0,.73.39l1,.31a5.08,5.08,0,0,1,1,.39,2.14,2.14,0,0,1,.73.64,1.73,1.73,0,0,1,.29,1,1.94,1.94,0,0,1-.42,1.27,2.51,2.51,0,0,1-1.12.79,4.3,4.3,0,0,1-1.6.28,7.06,7.06,0,0,1-1.09-.09,8.9,8.9,0,0,1-1.18-.25l.1-2h.88l.16,1.33-.14-.17a5.51,5.51,0,0,0,.66.13,5.42,5.42,0,0,0,.65.05,2.43,2.43,0,0,0,.82-.13,1.42,1.42,0,0,0,.63-.38.87.87,0,0,0,.25-.64.82.82,0,0,0-.29-.66,2.09,2.09,0,0,0-.74-.4l-.94-.31a4.89,4.89,0,0,1-.94-.39,2,2,0,0,1-.73-.63,1.74,1.74,0,0,1-.28-1,1.85,1.85,0,0,1,.38-1.22,2.14,2.14,0,0,1,1-.7,4,4,0,0,1,1.35-.22,6.19,6.19,0,0,1,1.08.1,8.39,8.39,0,0,1,1.23.29l-.07,1.69h-.9l-.21-1.13.2.22a4.55,4.55,0,0,0-1.29-.21,1.75,1.75,0,0,0-1,.27A.84.84,0,0,0,294.93,74.35Z"/><path class="cls-6" d="M302.31,80.09a1.62,1.62,0,0,1-1.26-.5,2.21,2.21,0,0,1-.44-1.49V73.28l.2.2h-1.4v-.76l1.43-.25-.23.27V70.88l1.4-.24v2.1l-.16-.21H304l0,1h-2.12l.16-.2V77.9a1.39,1.39,0,0,0,.22.86.79.79,0,0,0,.64.26,2,2,0,0,0,.52-.07,6.27,6.27,0,0,0,.63-.23l.28.79A4.18,4.18,0,0,1,302.31,80.09Z"/><path class="cls-6" d="M307.92,80.09a3.28,3.28,0,0,1-1.7-.43,2.88,2.88,0,0,1-1.15-1.26,4.63,4.63,0,0,1-.41-2,4.77,4.77,0,0,1,.43-2.12,3.17,3.17,0,0,1,1.21-1.37,3.53,3.53,0,0,1,1.86-.48,3,3,0,0,1,1.67.42,2.48,2.48,0,0,1,1,1.15,4.21,4.21,0,0,1,.31,1.67c0,.13,0,.25,0,.37s0,.26,0,.42h-5.31v-1h4.05l-.13.09a3.14,3.14,0,0,0-.14-1.05,1.54,1.54,0,0,0-.52-.77,1.5,1.5,0,0,0-1-.28,1.68,1.68,0,0,0-1.09.35,2.14,2.14,0,0,0-.65,1,4.36,4.36,0,0,0-.21,1.41,4.19,4.19,0,0,0,.24,1.49,2.14,2.14,0,0,0,.72,1,2,2,0,0,0,1.2.35,3.58,3.58,0,0,0,1.1-.19,5.89,5.89,0,0,0,1.22-.59l.49.77a6.29,6.29,0,0,1-1.59.81A4.83,4.83,0,0,1,307.92,80.09Z"/><path class="cls-6" d="M318.87,73.76l-.2,0a4.68,4.68,0,0,1,1.45-1.06,3.38,3.38,0,0,1,1.45-.35A2,2,0,0,1,323,73a2.36,2.36,0,0,1,.59,1.75v4.44l-.15-.22,1.19.27V80h-3.39V79.2l1.13-.27-.18.23V75a1.73,1.73,0,0,0-.34-1.19,1.11,1.11,0,0,0-.88-.37,2.31,2.31,0,0,0-1,.27,3.84,3.84,0,0,0-1.1.82l.11-.32,0,.23v4.68l-.15-.22,1.09.27V80h-3.29V79.2l1.14-.27-.19.23V75a1.73,1.73,0,0,0-.34-1.19,1.13,1.13,0,0,0-.88-.37,2.37,2.37,0,0,0-1,.25,4,4,0,0,0-1.08.79l.1-.23v4.88l-.16-.22,1.11.26V80H312V79.2l1.23-.29-.19.24v-5.8l.19.26-1.23-.3v-.74l2.13-.1.18,1.36-.18-.07a4.58,4.58,0,0,1,1.43-1,3.69,3.69,0,0,1,1.45-.33,2,2,0,0,1,1.15.33A1.88,1.88,0,0,1,318.87,73.76Z"/><path class="cls-6" d="M328.49,80.09a3.26,3.26,0,0,1-1.7-.43,2.83,2.83,0,0,1-1.15-1.26,4.49,4.49,0,0,1-.42-2,4.92,4.92,0,0,1,.43-2.12,3.19,3.19,0,0,1,1.22-1.37,3.52,3.52,0,0,1,1.85-.48,3.05,3.05,0,0,1,1.68.42,2.52,2.52,0,0,1,1,1.15,4.21,4.21,0,0,1,.32,1.67c0,.13,0,.25,0,.37s0,.26,0,.42h-5.3v-1h4l-.12.09a3.14,3.14,0,0,0-.14-1.05,1.68,1.68,0,0,0-.52-.77,1.53,1.53,0,0,0-1-.28,1.7,1.7,0,0,0-1.09.35,2.13,2.13,0,0,0-.64,1,4.36,4.36,0,0,0-.21,1.41,4.44,4.44,0,0,0,.23,1.49,2.09,2.09,0,0,0,.73,1,2,2,0,0,0,1.19.35,3.49,3.49,0,0,0,1.1-.19,5.72,5.72,0,0,0,1.23-.59l.49.77a6.64,6.64,0,0,1-1.59.81A4.93,4.93,0,0,1,328.49,80.09Z"/><path class="cls-6" d="M343.3,80.09a3.1,3.1,0,0,1-1.65-.45,3.06,3.06,0,0,1-1.17-1.29,4.38,4.38,0,0,1-.43-2,4.75,4.75,0,0,1,.3-1.79,3.34,3.34,0,0,1,.81-1.22,3.22,3.22,0,0,1,1.16-.7,4,4,0,0,1,1.34-.22,5.18,5.18,0,0,1,1.26.16A5.29,5.29,0,0,1,346,73L346,74.81h-.92l-.2-1.26.13.11a2.3,2.3,0,0,0-.66-.19,4,4,0,0,0-.66-.06,2,2,0,0,0-1.17.34,2.17,2.17,0,0,0-.73,1,4.08,4.08,0,0,0-.25,1.51,3.86,3.86,0,0,0,.27,1.52,2.08,2.08,0,0,0,.75.95,1.93,1.93,0,0,0,1.09.31,3,3,0,0,0,1-.19,4.73,4.73,0,0,0,1.14-.61l.49.75a6,6,0,0,1-1.5.84A4.11,4.11,0,0,1,343.3,80.09Z"/><path class="cls-6" d="M350.34,72.39a3.15,3.15,0,0,1,2.46,1,3.91,3.91,0,0,1,.9,2.75,4.77,4.77,0,0,1-.43,2.1A3.29,3.29,0,0,1,352,79.6a3.75,3.75,0,0,1-1.94.49,3.08,3.08,0,0,1-2.42-1,3.94,3.94,0,0,1-.87-2.74,5,5,0,0,1,.42-2.14,3.08,3.08,0,0,1,1.21-1.38A3.61,3.61,0,0,1,350.34,72.39Zm-.07,1a1.7,1.7,0,0,0-1.5.75,3.75,3.75,0,0,0-.52,2.16,3.63,3.63,0,0,0,.49,2.07,1.67,1.67,0,0,0,1.43.68,1.88,1.88,0,0,0,1.14-.34,1.93,1.93,0,0,0,.69-1,4.75,4.75,0,0,0,.23-1.56,3.58,3.58,0,0,0-.5-2.08A1.71,1.71,0,0,0,350.27,73.41Z"/><path class="cls-6" d="M361.43,73.76l-.2,0a4.68,4.68,0,0,1,1.45-1.06,3.38,3.38,0,0,1,1.45-.35,2,2,0,0,1,1.44.57,2.36,2.36,0,0,1,.59,1.75v4.44l-.15-.22,1.19.27V80h-3.39V79.2l1.13-.27-.18.23V75a1.73,1.73,0,0,0-.34-1.19,1.11,1.11,0,0,0-.88-.37,2.39,2.39,0,0,0-1,.27,4,4,0,0,0-1.09.82l.11-.32,0,.23v4.68l-.15-.22,1.09.27V80h-3.29V79.2l1.13-.27-.18.23V75a1.73,1.73,0,0,0-.34-1.19,1.13,1.13,0,0,0-.88-.37,2.37,2.37,0,0,0-1,.25,4,4,0,0,0-1.08.79l.1-.23v4.88l-.16-.22,1.11.26V80h-3.39V79.2l1.23-.29-.19.24v-5.8l.19.26-1.23-.3v-.74l2.13-.1.18,1.36-.18-.07a4.58,4.58,0,0,1,1.43-1,3.69,3.69,0,0,1,1.45-.33,2.06,2.06,0,0,1,1.15.33A1.88,1.88,0,0,1,361.43,73.76Z"/><path class="cls-6" d="M367.53,83.17v-.74l1.25-.33-.21.26v-9l.18.21-1.22-.3v-.74l2.13-.1.17,1.22-.17-.1a5.26,5.26,0,0,1,1.3-.9,3,3,0,0,1,1.28-.3,2.37,2.37,0,0,1,1.4.43,2.91,2.91,0,0,1,1,1.25,5.81,5.81,0,0,1-.08,4.23,3.17,3.17,0,0,1-1.26,1.35,3.91,3.91,0,0,1-1.91.45,5.3,5.3,0,0,1-.77-.06,7,7,0,0,1-.84-.18l.2-.16v2.66l-.17-.23,1.39.3v.74Zm3.68-4.09a2.06,2.06,0,0,0,1.75-.76,3.38,3.38,0,0,0,.58-2.08,4.23,4.23,0,0,0-.24-1.51,2.35,2.35,0,0,0-.64-1,1.46,1.46,0,0,0-.94-.33,2.15,2.15,0,0,0-.94.24,3.61,3.61,0,0,0-1,.72L370,74v5.12l-.18-.29A4.89,4.89,0,0,0,371.21,79.08Z"/><path class="cls-6" d="M379.49,72.39a3.17,3.17,0,0,1,2.46,1,3.91,3.91,0,0,1,.9,2.75,4.77,4.77,0,0,1-.44,2.1,3.27,3.27,0,0,1-1.23,1.39,3.75,3.75,0,0,1-1.94.49,3.11,3.11,0,0,1-2.43-1,4,4,0,0,1-.86-2.74,5,5,0,0,1,.42-2.14,3.08,3.08,0,0,1,1.21-1.38A3.59,3.59,0,0,1,379.49,72.39Zm-.07,1a1.72,1.72,0,0,0-1.51.75,3.83,3.83,0,0,0-.51,2.16,3.63,3.63,0,0,0,.49,2.07,1.66,1.66,0,0,0,1.43.68,1.88,1.88,0,0,0,1.14-.34,2.05,2.05,0,0,0,.69-1,4.75,4.75,0,0,0,.23-1.56,3.5,3.5,0,0,0-.51-2.08A1.68,1.68,0,0,0,379.42,73.41Z"/><path class="cls-6" d="M383.69,80V79.2l1.23-.29-.2.24v-5.8l.2.26-1.23-.3v-.74l2.13-.1.18,1.36-.18-.07a4.65,4.65,0,0,1,1.45-1,3.61,3.61,0,0,1,1.44-.33,2.21,2.21,0,0,1,1.56.57,2.29,2.29,0,0,1,.6,1.78v4.41l-.15-.22,1.19.27V80h-3.42V79.2l1.16-.27-.18.23V75a1.68,1.68,0,0,0-.36-1.19,1.3,1.3,0,0,0-1-.37,2.46,2.46,0,0,0-1,.25,4,4,0,0,0-1.08.79l.09-.25v4.9l-.15-.22,1.13.26V80Z"/><path class="cls-6" d="M395.76,80.09a3.26,3.26,0,0,1-1.7-.43,2.83,2.83,0,0,1-1.15-1.26,4.49,4.49,0,0,1-.42-2,4.92,4.92,0,0,1,.43-2.12,3.19,3.19,0,0,1,1.22-1.37,3.49,3.49,0,0,1,1.85-.48,3.05,3.05,0,0,1,1.68.42,2.52,2.52,0,0,1,1,1.15,4.21,4.21,0,0,1,.32,1.67c0,.13,0,.25,0,.37s0,.26,0,.42h-5.3v-1h4l-.12.09a3.14,3.14,0,0,0-.14-1.05,1.68,1.68,0,0,0-.52-.77,1.53,1.53,0,0,0-1-.28,1.7,1.7,0,0,0-1.09.35,2.13,2.13,0,0,0-.64,1,4.36,4.36,0,0,0-.21,1.41,4.44,4.44,0,0,0,.23,1.49,2.09,2.09,0,0,0,.73,1,2,2,0,0,0,1.19.35,3.54,3.54,0,0,0,1.1-.19,5.72,5.72,0,0,0,1.23-.59l.49.77a6.64,6.64,0,0,1-1.59.81A4.93,4.93,0,0,1,395.76,80.09Z"/><path class="cls-6" d="M399.82,80V79.2l1.23-.29-.2.24v-5.8l.2.26-1.23-.3v-.74l2.12-.1.19,1.36-.19-.07a4.77,4.77,0,0,1,1.45-1,3.65,3.65,0,0,1,1.45-.33,2.21,2.21,0,0,1,1.56.57,2.29,2.29,0,0,1,.6,1.78v4.41l-.16-.22,1.19.27V80h-3.41V79.2l1.16-.27-.18.23V75a1.63,1.63,0,0,0-.37-1.19,1.27,1.27,0,0,0-1-.37,2.46,2.46,0,0,0-1,.25,4.23,4.23,0,0,0-1.09.79l.1-.25v4.9l-.15-.22,1.13.26V80Z"/><path class="cls-6" d="M411.07,80.09a1.58,1.58,0,0,1-1.25-.5,2.21,2.21,0,0,1-.44-1.49V73.28l.19.2h-1.4v-.76l1.43-.25-.22.27V70.88l1.4-.24v2.1l-.17-.21h2.17l0,1h-2.13l.17-.2V77.9a1.39,1.39,0,0,0,.21.86.81.81,0,0,0,.64.26,2.09,2.09,0,0,0,.53-.07,5.38,5.38,0,0,0,.62-.23l.28.79A4.15,4.15,0,0,1,411.07,80.09Z"/><path class="cls-6" d="M416.69,80.09a3.26,3.26,0,0,1-1.7-.43,2.77,2.77,0,0,1-1.15-1.26,4.49,4.49,0,0,1-.42-2,4.92,4.92,0,0,1,.43-2.12,3.19,3.19,0,0,1,1.22-1.37,3.49,3.49,0,0,1,1.85-.48,3.05,3.05,0,0,1,1.68.42,2.52,2.52,0,0,1,1,1.15,4.21,4.21,0,0,1,.32,1.67c0,.13,0,.25,0,.37s0,.26,0,.42h-5.3v-1h4l-.12.09a3.42,3.42,0,0,0-.14-1.05,1.68,1.68,0,0,0-.52-.77,1.55,1.55,0,0,0-1-.28,1.7,1.7,0,0,0-1.09.35,2.13,2.13,0,0,0-.64,1,4.36,4.36,0,0,0-.21,1.41,4.2,4.2,0,0,0,.23,1.49,2.14,2.14,0,0,0,.72,1A2,2,0,0,0,417,79a3.54,3.54,0,0,0,1.1-.19,5.72,5.72,0,0,0,1.23-.59l.49.77a6.64,6.64,0,0,1-1.59.81A4.93,4.93,0,0,1,416.69,80.09Z"/><path class="cls-6" d="M426.88,76.29h-1.25l.31-.24v3.14l-.22-.29,1.69.3V80h-4.05V79.2l1.39-.32-.24.31V70.92l.27.32L423.36,71v-.74l2.61-.07h1.48a3.75,3.75,0,0,1,1.82.38,2.48,2.48,0,0,1,1.07,1,3.2,3.2,0,0,1,.35,1.51,3.29,3.29,0,0,1-.42,1.67A3,3,0,0,1,429,75.88,4.77,4.77,0,0,1,426.88,76.29Zm.35-5.09H425.7l.24-.25v4.53l-.31-.24h1.25a2.41,2.41,0,0,0,1.74-.58,2,2,0,0,0,.61-1.56,1.87,1.87,0,0,0-.51-1.39A2,2,0,0,0,427.23,71.2Z"/><path class="cls-6" d="M435.67,80.09a3.77,3.77,0,0,1-2.06-.58,4,4,0,0,1-1.49-1.68,7.08,7.08,0,0,1,0-5.47,4.05,4.05,0,0,1,1.55-1.74A4.32,4.32,0,0,1,436,70a6.82,6.82,0,0,1,1.46.17,9.83,9.83,0,0,1,1.61.54L439,73h-.86l-.28-1.7.25.25a5.9,5.9,0,0,0-1.06-.33,4.39,4.39,0,0,0-1-.11,2.66,2.66,0,0,0-1.56.45,2.94,2.94,0,0,0-1,1.3,5.25,5.25,0,0,0-.35,2,5.62,5.62,0,0,0,.38,2.19,3.16,3.16,0,0,0,1.05,1.35,2.61,2.61,0,0,0,1.49.45,3.66,3.66,0,0,0,1.29-.26,5.12,5.12,0,0,0,1.32-.8l.56.84a6,6,0,0,1-1.75,1A5,5,0,0,1,435.67,80.09Z"/><path class="cls-6" d="M285,94.09l-.13-.16,1.17.27V95h-3.49V94.2l1.18-.27-.13.16v-9l.11.13L282.54,85v-.74l2.45-.1Z"/><path class="cls-6" d="M292.38,94.19l-.21-.29,1.26.29v.74l-2.13.1-.19-1.34.11,0a4.06,4.06,0,0,1-1.3,1,3.21,3.21,0,0,1-1.36.34,2,2,0,0,1-1.39-.54,2.47,2.47,0,0,1-.23-2.86,1.91,1.91,0,0,1,1-.65,5,5,0,0,1,1.48-.2h1.71L291,91V89.8a1.27,1.27,0,0,0-.38-1,1.58,1.58,0,0,0-1.05-.31,3.75,3.75,0,0,0-.73.07,4.89,4.89,0,0,0-.83.22l.19-.2L288,89.78h-.93L287,87.92a13.57,13.57,0,0,1,1.58-.4,7.19,7.19,0,0,1,1.33-.13,2.89,2.89,0,0,1,1.83.51,2,2,0,0,1,.65,1.64ZM288,92.86a1.22,1.22,0,0,0,.29.89A1.05,1.05,0,0,0,289,94a2.16,2.16,0,0,0,1-.29,5.16,5.16,0,0,0,1.05-.76l-.09.35V91.6l.13.14h-1.49a2.09,2.09,0,0,0-1.27.28A1,1,0,0,0,288,92.86Z"/><path class="cls-6" d="M293.8,98.17v-.74L295,97.1l-.21.26v-9l.18.21-1.21-.3v-.74l2.12-.1.17,1.22-.17-.1a5.26,5.26,0,0,1,1.3-.9,3,3,0,0,1,1.28-.3,2.42,2.42,0,0,1,1.41.43,3,3,0,0,1,1,1.25,5.67,5.67,0,0,1-.08,4.23,3.17,3.17,0,0,1-1.26,1.35,3.87,3.87,0,0,1-1.9.45,5.19,5.19,0,0,1-.77-.06,6.65,6.65,0,0,1-.84-.18l.19-.16v2.66l-.17-.23,1.39.3v.74Zm3.68-4.09a2.05,2.05,0,0,0,1.74-.76,3.32,3.32,0,0,0,.58-2.08,4.23,4.23,0,0,0-.24-1.51,2.35,2.35,0,0,0-.64-1,1.44,1.44,0,0,0-.94-.33,2.15,2.15,0,0,0-.94.24,3.77,3.77,0,0,0-1,.72l.17-.4v5.12l-.18-.29A5,5,0,0,0,297.48,94.08Z"/><path class="cls-6" d="M304.67,95.09a1.58,1.58,0,0,1-1.25-.5A2.21,2.21,0,0,1,303,93.1V88.28l.2.2h-1.4v-.76l1.42-.25-.22.27V85.88l1.4-.24v2.1l-.17-.21h2.17l0,1h-2.13l.17-.2V92.9a1.32,1.32,0,0,0,.22.86.77.77,0,0,0,.63.26,2.09,2.09,0,0,0,.53-.07,5.38,5.38,0,0,0,.62-.23l.28.79A4.15,4.15,0,0,1,304.67,95.09Z"/><path class="cls-6" d="M310.55,87.39a3.19,3.19,0,0,1,2.47,1,4,4,0,0,1,.89,2.75,4.77,4.77,0,0,1-.43,2.1,3.23,3.23,0,0,1-1.24,1.39,3.72,3.72,0,0,1-1.94.49,3.1,3.1,0,0,1-2.42-1,3.94,3.94,0,0,1-.87-2.74,5,5,0,0,1,.42-2.14,3.08,3.08,0,0,1,1.21-1.38A3.64,3.64,0,0,1,310.55,87.39Zm-.07,1a1.7,1.7,0,0,0-1.5.75,3.83,3.83,0,0,0-.51,2.16,3.55,3.55,0,0,0,.49,2.07,1.65,1.65,0,0,0,1.43.68,1.92,1.92,0,0,0,1.14-.34,2,2,0,0,0,.68-1,4.5,4.5,0,0,0,.23-1.56,3.51,3.51,0,0,0-.5-2.08A1.7,1.7,0,0,0,310.48,88.41Z"/><path class="cls-6" d="M314.61,98.17v-.74l1.25-.33-.21.26v-9l.18.21-1.22-.3v-.74l2.13-.1.17,1.22-.17-.1a5.26,5.26,0,0,1,1.3-.9,3,3,0,0,1,1.28-.3,2.37,2.37,0,0,1,1.4.43,2.91,2.91,0,0,1,1,1.25,5.05,5.05,0,0,1,.36,2,4.88,4.88,0,0,1-.44,2.2,3.17,3.17,0,0,1-1.26,1.35,3.88,3.88,0,0,1-1.91.45,5.3,5.3,0,0,1-.77-.06,7,7,0,0,1-.84-.18l.2-.16v2.66l-.17-.23,1.39.3v.74Zm3.69-4.09a2.05,2.05,0,0,0,1.74-.76,3.32,3.32,0,0,0,.58-2.08,4.23,4.23,0,0,0-.24-1.51,2.35,2.35,0,0,0-.64-1,1.46,1.46,0,0,0-.94-.33,2.15,2.15,0,0,0-.94.24,3.61,3.61,0,0,0-1,.72l.17-.4v5.12l-.18-.29A5,5,0,0,0,318.3,94.08Z"/><path class="cls-6" d="M325.83,95.09a2.14,2.14,0,0,1-1.54-.59,2.4,2.4,0,0,1-.6-1.79V88.37l.15.22-1.2-.28v-.74l2.45-.08v5a1.63,1.63,0,0,0,.35,1.16,1.27,1.27,0,0,0,1,.38,2.48,2.48,0,0,0,1-.26,4,4,0,0,0,1.09-.79l-.1.28v-4.9l.15.25-1.2-.28v-.74l2.45-.1v6.68l-.2-.24,1.23.28v.74l-2.12.1-.2-1.38.2.07a4.85,4.85,0,0,1-1.45,1A3.71,3.71,0,0,1,325.83,95.09Z"/><path class="cls-6" d="M331.44,95V94.2l1.21-.27-.17.23V88.35l.18.26-1.22-.3v-.74l2.13-.1.18,1.36-.18-.06a5.81,5.81,0,0,1,1.24-1,2.51,2.51,0,0,1,1.31-.36,3.31,3.31,0,0,1,.95.14l-.1,2.22h-.85l-.18-1.48.15.29-.2,0h-.21a1.86,1.86,0,0,0-1,.31,4.09,4.09,0,0,0-.92.81l.13-.41v4.94l-.19-.23,1.49.27V95Z"/><path class="cls-6" d="M339.81,94.09l-.12-.16,1.17.27V95h-3.48V94.2l1.17-.27-.14.16V88.45l.13.13-1.16-.27v-.74l2.43-.08Zm-.77-8a.88.88,0,0,1-.62-.23.92.92,0,0,1-.24-.68.88.88,0,0,1,.25-.68.92.92,0,0,1,.63-.23.89.89,0,0,1,.63.23.88.88,0,0,1,.25.68.87.87,0,0,1-.26.68A.88.88,0,0,1,339,86.11Z"/><path class="cls-6" d="M352,98.31a5.21,5.21,0,0,1-2.49-.47,1.48,1.48,0,0,1-.82-1.37,1.6,1.6,0,0,1,.44-1.14,3.47,3.47,0,0,1,1.29-.83v.28a1.48,1.48,0,0,1-.75-.22.59.59,0,0,1-.27-.52.62.62,0,0,1,0-.23,2.35,2.35,0,0,1,.12-.33c.06-.14.15-.33.26-.55s.26-.51.43-.87l0,.24a2.24,2.24,0,0,1-1-.89,2.52,2.52,0,0,1-.34-1.34,2.47,2.47,0,0,1,.83-2,3.44,3.44,0,0,1,2.31-.72,3.84,3.84,0,0,1,1.73.35l-.35-.07,2.24-.1,0,.83-1.23.23.09-.19a1.61,1.61,0,0,1,.41.65,2.6,2.6,0,0,1,.14.87,2.45,2.45,0,0,1-.86,2,3.32,3.32,0,0,1-2.26.72,4.28,4.28,0,0,1-1.45-.23l.33-.16L350.63,94l-.29-.13h2.76a3.4,3.4,0,0,1,2.08.53,1.78,1.78,0,0,1,.7,1.52,2,2,0,0,1-1,1.78A5.44,5.44,0,0,1,352,98.31Zm.13-1A4.11,4.11,0,0,0,354,97a1,1,0,0,0,.57-.92.93.93,0,0,0-.42-.83,2.23,2.23,0,0,0-1.25-.28h-2.29l.36-.08q-1,.63-1,1.35a.85.85,0,0,0,.54.8A3.89,3.89,0,0,0,352.16,97.26Zm-.1-5.56a1.77,1.77,0,0,0,1.28-.44A1.68,1.68,0,0,0,353.8,90a1.6,1.6,0,0,0-.43-1.23,2.07,2.07,0,0,0-2.5,0,1.63,1.63,0,0,0-.45,1.25,1.74,1.74,0,0,0,.42,1.24A1.62,1.62,0,0,0,352.06,91.7Z"/><path class="cls-6" d="M362.3,94.19l-.21-.29,1.26.29v.74l-2.13.1-.2-1.34.11,0a4,4,0,0,1-1.3,1,3.18,3.18,0,0,1-1.36.34,2,2,0,0,1-1.39-.54A2,2,0,0,1,356.5,93a2.08,2.08,0,0,1,.35-1.27,1.91,1.91,0,0,1,1-.65,5.07,5.07,0,0,1,1.49-.2H361l-.12.16V89.8a1.3,1.3,0,0,0-.38-1,1.58,1.58,0,0,0-1-.31,3.93,3.93,0,0,0-.74.07,5.43,5.43,0,0,0-.83.22l.2-.2-.16,1.25H357l-.11-1.86a13.44,13.44,0,0,1,1.57-.4,7.3,7.3,0,0,1,1.34-.13,2.93,2.93,0,0,1,1.83.51,2,2,0,0,1,.65,1.64Zm-4.39-1.33a1.18,1.18,0,0,0,.3.89A1,1,0,0,0,359,94a2.16,2.16,0,0,0,1-.29,4.84,4.84,0,0,0,1-.76l-.08.35V91.6l.12.14h-1.48a2.12,2.12,0,0,0-1.28.28A1,1,0,0,0,357.91,92.86Z"/><path class="cls-6" d="M366.72,95.09a2.42,2.42,0,0,1-1.41-.43,2.77,2.77,0,0,1-1-1.26,5.14,5.14,0,0,1-.36-2,4,4,0,0,1,1-3,3.83,3.83,0,0,1,2.8-1,4.51,4.51,0,0,1,.72,0,7.19,7.19,0,0,1,.76.14l-.27.16V85.09l.13.17L367.87,85v-.74l2.5-.1v10l-.18-.22,1.24.29v.74l-2.13.1-.2-1.2.15,0a4.94,4.94,0,0,1-1.25.91A2.9,2.9,0,0,1,366.72,95.09Zm.52-1a2.07,2.07,0,0,0,.93-.24,4.49,4.49,0,0,0,1-.71l-.18.44V88.31l.18.34a5,5,0,0,0-1.43-.24,2.05,2.05,0,0,0-1.73.75,3.3,3.3,0,0,0-.58,2.08,4.46,4.46,0,0,0,.23,1.5,2.19,2.19,0,0,0,.64,1A1.44,1.44,0,0,0,367.24,94Z"/><path class="cls-6" d="M375.16,98.31a5.21,5.21,0,0,1-2.49-.47,1.49,1.49,0,0,1-.83-1.37,1.61,1.61,0,0,1,.45-1.14,3.47,3.47,0,0,1,1.29-.83v.28a1.42,1.42,0,0,1-.75-.22.59.59,0,0,1-.27-.52.91.91,0,0,1,0-.23c0-.08.07-.19.13-.33s.15-.33.26-.55.26-.51.43-.87l0,.24a2.24,2.24,0,0,1-1-.89,2.52,2.52,0,0,1-.34-1.34,2.47,2.47,0,0,1,.83-2,3.42,3.42,0,0,1,2.31-.72,3.84,3.84,0,0,1,1.73.35l-.35-.07,2.24-.1v.83l-1.23.23.1-.19a1.72,1.72,0,0,1,.41.65,2.6,2.6,0,0,1,.14.87,2.45,2.45,0,0,1-.86,2,3.34,3.34,0,0,1-2.27.72,4.26,4.26,0,0,1-1.44-.23l.32-.16L373.76,94l-.29-.13h2.76a3.42,3.42,0,0,1,2.08.53,1.78,1.78,0,0,1,.7,1.52,2,2,0,0,1-1,1.78A5.47,5.47,0,0,1,375.16,98.31Zm.13-1a4,4,0,0,0,1.8-.31,1,1,0,0,0,.58-.92.93.93,0,0,0-.42-.83,2.25,2.25,0,0,0-1.25-.28h-2.29l.36-.08q-1,.63-1,1.35a.85.85,0,0,0,.54.8A3.89,3.89,0,0,0,375.29,97.26Zm-.1-5.56a1.77,1.77,0,0,0,1.28-.44,1.68,1.68,0,0,0,.46-1.27,1.64,1.64,0,0,0-.43-1.23,1.75,1.75,0,0,0-1.24-.41,1.79,1.79,0,0,0-1.27.43,1.67,1.67,0,0,0-.44,1.25,1.69,1.69,0,0,0,.42,1.24A1.62,1.62,0,0,0,375.19,91.7Z"/><path class="cls-6" d="M382.83,95.09a3.28,3.28,0,0,1-1.7-.43A2.81,2.81,0,0,1,380,93.4a4.49,4.49,0,0,1-.42-2,4.77,4.77,0,0,1,.43-2.12,3.13,3.13,0,0,1,1.22-1.37,3.47,3.47,0,0,1,1.85-.48,3.08,3.08,0,0,1,1.68.42,2.52,2.52,0,0,1,1,1.15,4.21,4.21,0,0,1,.32,1.67c0,.13,0,.25,0,.37s0,.26,0,.42h-5.31v-1h4l-.13.09a2.91,2.91,0,0,0-.14-1.05,1.59,1.59,0,0,0-.51-.77,1.55,1.55,0,0,0-1-.28,1.7,1.7,0,0,0-1.09.35,2.14,2.14,0,0,0-.65,1,4.36,4.36,0,0,0-.21,1.41,4.19,4.19,0,0,0,.24,1.49,2.14,2.14,0,0,0,.72,1,2,2,0,0,0,1.2.35,3.54,3.54,0,0,0,1.1-.19,5.66,5.66,0,0,0,1.22-.59L386,94a6.4,6.4,0,0,1-1.58.81A4.94,4.94,0,0,1,382.83,95.09Z"/><path class="cls-6" d="M389.46,95.09a1.62,1.62,0,0,1-1.26-.5,2.21,2.21,0,0,1-.44-1.49V88.28l.2.2h-1.4v-.76l1.43-.25-.23.27V85.88l1.4-.24v2.1l-.17-.21h2.17l0,1H389l.17-.2V92.9a1.39,1.39,0,0,0,.22.86A.79.79,0,0,0,390,94a2,2,0,0,0,.52-.07,5.38,5.38,0,0,0,.62-.23l.28.79A4.11,4.11,0,0,1,389.46,95.09Z"/><path class="cls-6" d="M394.79,95.09a2.1,2.1,0,0,1-1.53-.59,2.37,2.37,0,0,1-.61-1.79V88.37l.15.22-1.2-.28v-.74l2.45-.08v5a1.68,1.68,0,0,0,.35,1.16,1.27,1.27,0,0,0,1,.38,2.48,2.48,0,0,0,1-.26,4,4,0,0,0,1.09-.79l-.1.28v-4.9l.15.25-1.2-.28v-.74l2.45-.1v6.68l-.2-.24,1.24.28v.74l-2.13.1-.2-1.38.2.07a4.73,4.73,0,0,1-1.45,1A3.68,3.68,0,0,1,394.79,95.09Z"/><path class="cls-6" d="M400.4,95V94.2l1.21-.27-.17.23V88.35l.18.26-1.22-.3v-.74l2.13-.1.18,1.36-.18-.06a6.06,6.06,0,0,1,1.24-1,2.53,2.53,0,0,1,1.31-.36,3.26,3.26,0,0,1,.95.14l-.1,2.22h-.85l-.18-1.48.15.29-.2,0h-.2a1.87,1.87,0,0,0-1,.31,4.09,4.09,0,0,0-.92.81l.13-.41v4.94l-.18-.23,1.48.27V95Z"/><path class="cls-6" d="M408.78,94.09l-.13-.16,1.18.27V95h-3.49V94.2l1.18-.27-.14.16V88.45l.12.13-1.16-.27v-.74l2.44-.08Zm-.77-8a.9.9,0,0,1-.63-.23.92.92,0,0,1-.24-.68.88.88,0,0,1,.25-.68,1,1,0,0,1,1.27,0,.91.91,0,0,1,.24.68.83.83,0,0,1-.26.68A.88.88,0,0,1,408,86.11Z"/><path class="cls-6" d="M417.68,98.17v-.74l1.25-.33-.21.26v-9l.18.21-1.22-.3v-.74l2.13-.1.17,1.22-.17-.1a5.41,5.41,0,0,1,1.29-.9,3,3,0,0,1,1.28-.3,2.38,2.38,0,0,1,1.41.43,3,3,0,0,1,1,1.25,5.05,5.05,0,0,1,.36,2,4.87,4.87,0,0,1-.45,2.2,3.05,3.05,0,0,1-1.26,1.35,3.84,3.84,0,0,1-1.9.45,5.3,5.3,0,0,1-.77-.06,7,7,0,0,1-.84-.18l.2-.16v2.66l-.17-.23,1.38.3v.74Zm3.68-4.09a2.06,2.06,0,0,0,1.75-.76,3.38,3.38,0,0,0,.58-2.08,4.23,4.23,0,0,0-.24-1.51,2.36,2.36,0,0,0-.65-1,1.43,1.43,0,0,0-.93-.33,2.11,2.11,0,0,0-.94.24,3.46,3.46,0,0,0-1,.72l.17-.4v5.12l-.19-.29A5,5,0,0,0,421.36,94.08Z"/><path class="cls-6" d="M429.37,95.09a3.28,3.28,0,0,1-1.7-.43,2.88,2.88,0,0,1-1.15-1.26,4.5,4.5,0,0,1-.41-2,4.92,4.92,0,0,1,.42-2.12,3.26,3.26,0,0,1,1.22-1.37,3.53,3.53,0,0,1,1.86-.48,3,3,0,0,1,1.67.42,2.54,2.54,0,0,1,1,1.15,4.21,4.21,0,0,1,.31,1.67c0,.13,0,.25,0,.37s0,.26,0,.42H427.2v-1h4.05l-.13.09a3.14,3.14,0,0,0-.14-1.05,1.6,1.6,0,0,0-.52-.77,1.5,1.5,0,0,0-1-.28,1.72,1.72,0,0,0-1.1.35,2.13,2.13,0,0,0-.64,1,4.36,4.36,0,0,0-.21,1.41,4.19,4.19,0,0,0,.24,1.49,2.14,2.14,0,0,0,.72,1,2,2,0,0,0,1.2.35,3.48,3.48,0,0,0,1.09-.19,5.72,5.72,0,0,0,1.23-.59l.49.77a6.29,6.29,0,0,1-1.59.81A4.93,4.93,0,0,1,429.37,95.09Z"/><path class="cls-6" d="M433.43,95V94.2l1.2-.27-.16.23V88.35l.18.26-1.22-.3v-.74l2.13-.1.18,1.36-.18-.06a5.81,5.81,0,0,1,1.24-1,2.51,2.51,0,0,1,1.31-.36,3.36,3.36,0,0,1,.95.14l-.1,2.22h-.85l-.19-1.48.16.29-.21,0h-.2a1.86,1.86,0,0,0-1,.31,4.09,4.09,0,0,0-.92.81l.13-.41v4.94l-.19-.23,1.49.27V95Z"/><path class="cls-6" d="M441.8,94.09l-.12-.16,1.17.27V95h-3.48V94.2l1.17-.27-.14.16V88.45l.13.13-1.16-.27v-.74l2.43-.08Zm-.77-8a.88.88,0,0,1-.62-.23.89.89,0,0,1-.25-.68.89.89,0,1,1,1.77,0,.87.87,0,0,1-.26.68A.9.9,0,0,1,441,86.11Z"/><path class="cls-6" d="M443.43,95V94.2l1.2-.27-.15.18V88.37l.15.18H443.4v-.77l1.26-.23-.18.24V86.72a2.64,2.64,0,0,1,.71-2,2.74,2.74,0,0,1,1.9-.65,5,5,0,0,1,.77.06,6.57,6.57,0,0,1,.83.2l-.22.95-.59-.15a2.89,2.89,0,0,0-.56-.06,1.49,1.49,0,0,0-1.05.38,1.55,1.55,0,0,0-.39,1.18v1.2l-.21-.21h2.1l0,1h-2l.17-.18v5.72l-.16-.16,1.42.27V95Z"/><path class="cls-6" d="M451.42,95.09a3.28,3.28,0,0,1-1.7-.43,2.88,2.88,0,0,1-1.15-1.26,4.5,4.5,0,0,1-.41-2,4.92,4.92,0,0,1,.42-2.12,3.26,3.26,0,0,1,1.22-1.37,3.53,3.53,0,0,1,1.86-.48,3,3,0,0,1,1.67.42,2.54,2.54,0,0,1,1,1.15,4.21,4.21,0,0,1,.31,1.67c0,.13,0,.25,0,.37s0,.26,0,.42h-5.31v-1h4.05l-.13.09a3.14,3.14,0,0,0-.14-1.05,1.6,1.6,0,0,0-.52-.77,1.5,1.5,0,0,0-1-.28,1.72,1.72,0,0,0-1.1.35,2.13,2.13,0,0,0-.64,1,4.36,4.36,0,0,0-.21,1.41,4.19,4.19,0,0,0,.24,1.49,2.14,2.14,0,0,0,.72,1,2,2,0,0,0,1.2.35,3.48,3.48,0,0,0,1.09-.19,5.72,5.72,0,0,0,1.23-.59l.49.77a6.29,6.29,0,0,1-1.59.81A4.93,4.93,0,0,1,451.42,95.09Z"/><path class="cls-6" d="M455.48,95V94.2l1.2-.27-.16.23V88.35l.18.26-1.22-.3v-.74l2.13-.1.18,1.36-.18-.06a5.81,5.81,0,0,1,1.24-1,2.51,2.51,0,0,1,1.31-.36,3.36,3.36,0,0,1,.95.14l-.1,2.22h-.85L460,88.27l.16.29-.21,0h-.2a1.86,1.86,0,0,0-1,.31,4.09,4.09,0,0,0-.92.81l.13-.41v4.94l-.19-.23,1.49.27V95Z"/><path class="cls-6" d="M463.85,94.09l-.12-.16,1.17.27V95h-3.48V94.2l1.17-.27-.14.16V88.45l.13.13-1.16-.27v-.74l2.43-.08Zm-.77-8a.88.88,0,0,1-.62-.23.89.89,0,0,1-.25-.68.89.89,0,1,1,1.77,0,.87.87,0,0,1-.26.68A.9.9,0,0,1,463.08,86.11Z"/><path class="cls-6" d="M468.78,95.09a3.1,3.1,0,0,1-1.65-.45A3.06,3.06,0,0,1,466,93.35a4.38,4.38,0,0,1-.43-2,4.75,4.75,0,0,1,.3-1.79,3.34,3.34,0,0,1,.81-1.22,3.31,3.31,0,0,1,1.16-.7,4,4,0,0,1,1.34-.22,5.18,5.18,0,0,1,1.26.16,5.29,5.29,0,0,1,1.11.4l-.06,1.86h-.92l-.2-1.26.13.11a2.3,2.3,0,0,0-.66-.19,4,4,0,0,0-.66-.06,2,2,0,0,0-1.17.34,2.17,2.17,0,0,0-.73,1,4.08,4.08,0,0,0-.25,1.51,3.86,3.86,0,0,0,.27,1.52,2.08,2.08,0,0,0,.75.95,1.93,1.93,0,0,0,1.09.31,3,3,0,0,0,1-.19,4.73,4.73,0,0,0,1.14-.61l.49.75a6,6,0,0,1-1.5.84A4.11,4.11,0,0,1,468.78,95.09Z"/><path class="cls-6" d="M475.56,95.09a3.26,3.26,0,0,1-1.7-.43,2.77,2.77,0,0,1-1.15-1.26,4.49,4.49,0,0,1-.42-2,4.92,4.92,0,0,1,.43-2.12,3.19,3.19,0,0,1,1.22-1.37,3.49,3.49,0,0,1,1.85-.48,3.05,3.05,0,0,1,1.68.42,2.52,2.52,0,0,1,1,1.15,4.21,4.21,0,0,1,.32,1.67c0,.13,0,.25,0,.37s0,.26,0,.42h-5.3v-1h4l-.12.09a3.14,3.14,0,0,0-.14-1.05,1.68,1.68,0,0,0-.52-.77,1.55,1.55,0,0,0-1-.28,1.7,1.7,0,0,0-1.09.35,2.13,2.13,0,0,0-.64,1,4.36,4.36,0,0,0-.21,1.41,4.44,4.44,0,0,0,.23,1.49,2.14,2.14,0,0,0,.72,1,2,2,0,0,0,1.2.35,3.54,3.54,0,0,0,1.1-.19,5.72,5.72,0,0,0,1.23-.59l.49.77a6.64,6.64,0,0,1-1.59.81A4.93,4.93,0,0,1,475.56,95.09Z"/><path class="cls-6" d="M491.82,95.07a4.77,4.77,0,0,1-2.37-.56,3.77,3.77,0,0,1-1.57-1.66,5.92,5.92,0,0,1-.56-2.72,6.17,6.17,0,0,1,.56-2.77,3.86,3.86,0,0,1,1.61-1.75A5,5,0,0,1,492,85a8.1,8.1,0,0,1,3.33.73L495.21,88h-.85l-.28-1.68.22.22a8.16,8.16,0,0,0-1.13-.31,5.63,5.63,0,0,0-1.12-.12,3,3,0,0,0-1.7.46,3,3,0,0,0-1.11,1.34,5.37,5.37,0,0,0-.38,2.17,4.4,4.4,0,0,0,.82,2.85A2.85,2.85,0,0,0,492,94a5.13,5.13,0,0,0,1-.1,6.31,6.31,0,0,0,1.11-.33l-.18.32v-2.9l.25.26-1.4-.21v-.77l3.6-.07v.76l-1.28.3.17-.27v3.38a9.34,9.34,0,0,1-1.8.57A8.17,8.17,0,0,1,491.82,95.07Z"/><path class="cls-6" d="M500.71,91.29h-1.24l.31-.24v3.14l-.23-.29,1.69.3V95h-4V94.2l1.38-.32-.23.31V85.92l.26.32L497.2,86v-.74l2.6-.07h1.49a3.81,3.81,0,0,1,1.82.38,2.46,2.46,0,0,1,1.06,1,3.2,3.2,0,0,1,.35,1.51,3.29,3.29,0,0,1-.42,1.67,2.89,2.89,0,0,1-1.27,1.14A4.74,4.74,0,0,1,500.71,91.29Zm.35-5.09h-1.52l.24-.25v4.53l-.31-.24h1.24a2.43,2.43,0,0,0,1.75-.58,2.09,2.09,0,0,0,.61-1.56,1.88,1.88,0,0,0-.52-1.39A2,2,0,0,0,501.06,86.2Z"/><path class="cls-6" d="M507,87.55a1.16,1.16,0,0,0,.28.81,2.18,2.18,0,0,0,.74.52,6.76,6.76,0,0,0,1,.38c.36.12.73.24,1.1.38a4.89,4.89,0,0,1,1,.52,2.28,2.28,0,0,1,.74.8,2.38,2.38,0,0,1,.28,1.23,2.57,2.57,0,0,1-.51,1.64,3.05,3.05,0,0,1-1.36,1,5.56,5.56,0,0,1-1.87.31,7.29,7.29,0,0,1-1.45-.15,7.75,7.75,0,0,1-1.47-.44l.08-2.41h.84l.26,1.75-.15-.27a4.62,4.62,0,0,0,1,.33,5,5,0,0,0,1,.11,3.31,3.31,0,0,0,1.11-.18,1.92,1.92,0,0,0,.82-.55,1.37,1.37,0,0,0,.31-.91,1.29,1.29,0,0,0-.28-.84,2.24,2.24,0,0,0-.75-.53,7.73,7.73,0,0,0-1-.38c-.37-.11-.74-.23-1.1-.36a4.83,4.83,0,0,1-1-.5,2.3,2.3,0,0,1-.74-.78,2.39,2.39,0,0,1-.28-1.22,2.51,2.51,0,0,1,.45-1.54,2.74,2.74,0,0,1,1.24-.91A4.77,4.77,0,0,1,509,85a7.85,7.85,0,0,1,1.42.14,8.61,8.61,0,0,1,1.45.44l-.13,2.29h-.85l-.24-1.63.18.18a4.22,4.22,0,0,0-.85-.25,4.86,4.86,0,0,0-.92-.09,3.42,3.42,0,0,0-1,.14,1.82,1.82,0,0,0-.77.47A1.25,1.25,0,0,0,507,87.55Z"/><circle class="cls-6" cx="336.24" cy="76.12" r="1.4"/><circle class="cls-6" cx="344.33" cy="91.58" r="1.4"/><circle class="cls-6" cx="413.96" cy="91.58" r="1.41"/><circle class="cls-6" cx="483.29" cy="91.58" r="1.41"/></svg>